<svg width="90" height="92" viewBox="0 0 90 92" fill="none" xmlns="http://www.w3.org/2000/svg">
<path d="M89.9999 47.0998C89.9999 43.9998 89.6999 40.7998 89.1999 37.7998H45.8999V55.4998H70.6999C69.6999 61.1998 66.3999 66.1998 61.4999 69.3998L76.2999 80.8998C84.9999 72.7998 89.9999 60.9998 89.9999 47.0998Z" fill="#4280EF"/>
<path d="M45.8999 91.8999C58.2999 91.8999 68.6999 87.7999 76.2999 80.7999L61.4999 69.3999C57.3999 72.1999 52.0999 73.7999 45.8999 73.7999C33.8999 73.7999 23.7999 65.6999 20.0999 54.8999L4.8999 66.5999C12.6999 82.0999 28.4999 91.8999 45.8999 91.8999Z" fill="#34A353"/>
<path d="M20.0999 54.7999C18.1999 49.0999 18.1999 42.8999 20.0999 37.1999L4.8999 25.3999C-1.6001 38.3999 -1.6001 53.6999 4.8999 66.5999L20.0999 54.7999Z" fill="#F6B704"/>
<path d="M45.8999 18.2999C52.3999 18.1999 58.7999 20.6999 63.4999 25.1999L76.5999 11.9999C68.2999 4.19989 57.2999 -0.000110182 45.8999 0.0998898C28.4999 0.0998898 12.6999 9.89989 4.8999 25.3999L20.0999 37.1999C23.7999 26.2999 33.8999 18.2999 45.8999 18.2999Z" fill="#E54335"/>
</svg>
